<?xml version="1.0" encoding="UTF-8"?> <!-- Generator: Adobe Illustrator 23.0.0, SVG Export Plug-In . SVG Version: 6.00 Build 0) --> <svg xmlns="http://www.w3.org/2000/svg" xmlns:xlink="http://www.w3.org/1999/xlink" id="Layer_1" x="0px" y="0px" viewBox="0 0 512 512" xml:space="preserve"> <path fill="#e31388" d="M256,3.4C116.8,3.4,3,107.8,3,236.7c0,73.4,37,138.9,93,181.7v89l86.8-47.1c22.9,6.3,47.6,9.8,72.8,9.8 c139.2,0,252.2-104.5,252.2-233.3S395.1,3.4,256,3.4z"></path> <polygon fill="#e31388" points="418.7,171.4 295.1,239.8 229.4,171.4 91.6,317.6 216.8,249.1 281,317.6 "></polygon> <path fill="#FFFFFF" d="M104.9,275.1c19.3,0,37.4-0.1,55.4,0c10.1,0.1,15.6,4.3,16.6,12.4c1.1,10.1-4.7,16.9-15.7,17 c-20.7,0.3-41.2,0.1-62,0.1c-6,0-11.9,0.3-17.9-0.1c-7.4-0.4-14.7-1.9-18.3-9.6s-1-14.6,3.8-20.8c19.7-25,39.5-50.2,59.3-75.2 c1.1-1.5,2.3-3.1,3.4-4.5c-1.3-2.2-3.1-1.1-4.6-1.3c-13.8-0.1-27.7,0-41.5-0.1c-3.2,0-6.3-0.3-9.5-1c-7.2-1.6-11.7-8.8-10.1-16 c1.1-4.9,4.9-8.8,9.9-10c3.1-0.8,6.3-1.2,9.4-1.1c22.7-0.1,45.6-0.1,68.3,0c4-0.1,8.1,0.4,12,1.4c8.7,2.9,12.4,11,8.9,19.4 c-3.1,7.3-7.9,13.5-12.8,19.8c-16.7,21.3-33.5,42.5-50.2,63.6C108.2,270.6,106.9,272.3,104.9,275.1L104.9,275.1z"></path> <path fill="#FFFFFF" d="M264.6,199.2c-5.2,1-8.4,4.7-11.5,8.7c-16-13.9-33.6-14.8-51-4.5c-20.9,12.3-28.7,32.2-26,55.6 c2.5,21.6,11.9,39.3,34.6,46.7c14.2,4.6,27.3,2.9,39-6.5c3.1-2.4,4-1.9,6.1,0.8c4.2,5.4,11.5,7.5,17.9,5c6.3-2,10.6-7.8,10.6-14.4 c0.3-25.5,0.4-51.1,0-76.6C284.1,203.7,274.7,197.2,264.6,199.2z M246.8,270c-1.2,1.6-2.6,3-4.2,4.2c-7.5,5.5-17.8,5.5-25.3,0 c-1.6-1.2-3-2.6-4.2-4.2c-3.2-4.5-5-9.9-5.2-15.5c-0.1-18,9.7-28.9,23.6-28.1c1.9,0.1,3.7,0.4,5.5,1c4,1.3,7.4,3.8,9.8,7.1 C254,244.3,254,260.3,246.8,270z"></path> <path fill="#FFFFFF" d="M450.2,249.8c-1-31.9-24.8-53.8-57.4-52.8c-30.6,0.9-52.2,25.4-51.2,58.2c-0.5,31.9,25.9,56.1,59.3,52.8 C431.4,305,451.2,282.1,450.2,249.8z M412.2,270.4c-5.4,6.8-14.4,9.6-22.7,7l-0.4-0.1l0,0c-2.3-0.8-4.5-1.9-6.4-3.4 c-1.4-1-2.6-2.3-3.6-3.7c-3.8-5.2-5.7-11.5-5.5-17.9c0-16,9.7-26.4,23.5-25.7c6,0.2,11.6,3.2,15.2,8c3.7,4.9,5.5,11.4,5.5,17.9 S415.9,265.6,412.2,270.4z"></path> <path fill="#FFFFFF" d="M330.3,170c0-10.2-6.5-16.6-16.2-16.5c-9.5,0-15.7,6.4-15.8,16.2c-0.1,6,0,11.9,0,17.9v101.6 c0,8,4.9,14.8,11.2,16.5c1.6,0.4,3.1,0.5,4.7,0.5c9.1-0.3,16.2-7.8,16.1-16.9c0.1-19.8,0-39.6,0-59.4S330.5,189.9,330.3,170z"></path> </svg> 